<?xml version="1.0" standalone="no"?>
<!DOCTYPE svg PUBLIC "-//W3C//DTD SVG 20010904//EN"
 "http://www.w3.org/TR/2001/REC-SVG-20010904/DTD/svg10.dtd">
<svg version="1.0" xmlns="http://www.w3.org/2000/svg"
 width="328.000000pt" height="328.000000pt" viewBox="0 0 328.000000 328.000000"
 preserveAspectRatio="xMidYMid meet">
<metadata>
Created by potrace 1.14, written by Peter Selinger 2001-2017
</metadata>
<g transform="translate(0.000000,328.000000) scale(0.100000,-0.100000)"
fill="#000000" stroke="none">
<path d="M2117 2886 c-8 -9 -18 -40 -22 -68 -3 -29 -5 -363 -3 -743 2 -549 6
-695 16 -713 l13 -23 282 3 282 3 60 29 c138 65 205 195 205 398 0 152 -29
240 -106 324 -24 27 -44 50 -44 52 0 2 18 25 40 51 54 64 81 137 87 237 9 139
-32 287 -99 352 -39 38 -82 72 -93 72 -5 0 -23 8 -40 17 -26 15 -69 18 -296
21 -232 3 -268 2 -282 -12z m484 -62 c46 -8 88 -20 93 -25 6 -5 17 -9 27 -9
25 0 109 -87 130 -135 28 -63 42 -183 30 -250 -15 -80 -36 -119 -103 -186 -32
-32 -58 -66 -58 -75 0 -15 47 -66 87 -95 103 -73 135 -320 61 -476 -62 -133
-184 -172 -535 -173 l-193 0 0 713 c0 393 3 717 7 720 14 14 369 7 454 -9z"/>
<path d="M2398 2589 c-16 -9 -18 -28 -18 -162 0 -106 4 -157 12 -165 7 -7 44
-12 98 -12 81 0 88 2 112 28 36 37 48 73 48 143 0 85 -25 140 -77 167 -27 15
-151 15 -175 1z m189 -98 c27 -40 30 -96 6 -131 -25 -37 -32 -40 -105 -40
l-68 0 0 105 0 106 72 -3 c70 -3 73 -4 95 -37z"/>
<path d="M2392 1990 c-8 -13 -12 -69 -12 -174 0 -149 1 -155 22 -170 29 -20
114 -21 162 -1 111 46 131 264 32 340 -29 22 -43 25 -112 25 -68 0 -81 -3 -92
-20z m190 -70 c28 -28 40 -85 28 -129 -17 -65 -42 -81 -122 -81 l-68 0 0 116
0 116 73 -4 c48 -2 79 -8 89 -18z"/>
<path d="M275 2818 c-3 -13 -4 -349 -3 -748 l3 -725 105 0 105 0 3 388 c1 213
6 387 11 387 4 0 23 -33 41 -72 18 -40 67 -147 108 -238 41 -91 91 -203 112
-250 21 -47 52 -115 69 -152 l32 -68 99 0 c88 0 100 2 110 19 14 27 14 1435 0
1462 -9 17 -22 19 -105 19 -83 0 -96 -2 -105 -19 -6 -13 -10 -146 -10 -366 0
-190 -4 -344 -8 -341 -5 3 -28 49 -51 103 -38 86 -99 225 -228 518 -20 44 -40
86 -46 93 -6 8 -44 12 -123 12 -110 0 -114 -1 -119 -22z"/>
<path d="M1810 2822 c-44 -21 -70 -72 -70 -135 0 -76 21 -113 77 -138 26 -12
55 -25 63 -29 8 -4 16 -20 18 -37 2 -23 -2 -32 -22 -41 -21 -9 -34 -8 -70 7
-24 11 -47 25 -52 33 -10 15 -21 -19 -23 -67 -1 -41 41 -65 118 -65 47 0 61 4
78 23 33 36 43 63 43 116 0 81 -31 133 -86 147 -63 15 -85 44 -68 88 10 26 70
20 99 -8 l25 -25 11 42 c7 27 8 47 2 57 -11 17 -71 49 -93 49 -8 0 -31 -8 -50
-17z"/>
<path d="M1542 2643 c-22 -65 -75 -215 -117 -333 -42 -118 -92 -258 -110 -310
-18 -52 -78 -223 -134 -379 -56 -156 -101 -288 -101 -293 0 -4 36 -8 79 -8
l80 0 21 58 c12 31 39 107 60 167 21 61 73 207 115 325 42 118 93 261 112 318
20 56 39 102 42 102 7 0 261 -709 261 -728 0 -8 -24 -12 -79 -12 l-79 0 -48
134 c-27 74 -51 133 -55 131 -3 -2 -22 -53 -42 -112 l-37 -108 48 -130 48
-130 246 -3 247 -2 -39 107 c-21 60 -98 278 -172 485 l-133 378 -82 0 c-46 0
-83 1 -83 3 0 2 14 41 31 88 55 148 54 138 14 260 -20 60 -40 109 -44 109 -4
0 -26 -53 -49 -117z"/>
<path d="M2113 1223 l-23 -4 0 -289 0 -289 53 -11 c43 -9 61 -8 97 5 24 8 50
21 58 28 63 52 70 240 12 302 -17 18 -19 27 -10 49 21 56 9 149 -24 182 -30
30 -94 40 -163 27z m115 -95 c15 -15 16 -82 2 -109 -7 -12 -21 -19 -40 -19
l-30 0 0 70 c0 70 0 70 28 70 15 0 33 -5 40 -12z m37 -246 c19 -32 23 -62 14
-97 -12 -42 -47 -68 -86 -63 -28 3 -28 3 -31 87 -2 61 1 87 10 93 19 12 81 -1
93 -20z"/>
<path d="M250 930 l0 -290 35 0 35 0 2 172 3 173 29 -75 c16 -41 47 -119 69
-172 37 -92 41 -98 68 -98 l29 0 0 290 0 290 -35 0 -35 0 -2 -177 -3 -178 -69
178 c-67 172 -70 177 -97 177 l-29 0 0 -290z"/>
<path d="M752 993 c3 -225 3 -229 31 -284 23 -48 34 -59 71 -73 42 -16 47 -16
78 0 40 21 58 43 80 103 14 38 17 84 18 264 l0 217 -34 0 -35 0 -3 -218 c-3
-188 -5 -222 -21 -245 -23 -35 -59 -35 -86 -1 -20 25 -21 39 -21 245 l0 219
-41 0 -41 0 4 -227z"/>
<path d="M1222 1173 l3 -48 43 3 42 4 0 -246 0 -246 40 0 40 0 0 246 0 246 43
-4 42 -3 3 48 3 47 -131 0 -131 0 3 -47z"/>
<path d="M2620 1203 c0 -16 -105 -507 -116 -545 -4 -15 1 -18 35 -18 29 0 41
4 41 15 0 7 5 37 11 65 l11 50 59 0 c65 0 59 6 77 -85 7 -38 10 -40 48 -43
l41 -3 -47 213 c-26 117 -56 248 -65 291 l-17 77 -39 0 c-30 0 -39 -4 -39 -17z
m59 -220 c7 -38 15 -78 18 -90 5 -21 2 -23 -37 -23 -31 0 -41 4 -37 13 3 7 11
48 17 90 7 42 16 77 20 77 3 0 12 -30 19 -67z"/>
<path d="M2970 1216 c0 -2 11 -34 25 -71 14 -36 41 -122 60 -190 29 -102 35
-140 35 -219 l0 -96 35 0 35 0 0 96 c0 85 5 115 45 251 25 84 52 170 60 190 8
19 15 37 15 40 0 2 -19 3 -42 1 l-42 -3 -33 -114 c-18 -62 -34 -115 -36 -117
-2 -2 -19 50 -38 116 l-34 120 -42 0 c-24 0 -43 -2 -43 -4z"/>
<path d="M1724 1093 c-45 -22 -67 -66 -68 -134 -1 -83 25 -114 122 -150 25 -9
32 -17 32 -39 0 -15 -7 -33 -15 -40 -21 -17 -82 -6 -110 20 -12 11 -24 20 -28
20 -4 0 -7 -22 -7 -50 0 -40 4 -52 23 -64 33 -22 92 -29 130 -17 104 35 101
243 -4 271 -57 16 -83 41 -75 73 6 24 11 27 46 27 27 0 45 -7 59 -22 22 -23
23 -22 36 35 7 35 -6 53 -53 73 -42 17 -49 17 -88 -3z"/>
</g>
</svg>
